<svg xmlns="http://www.w3.org/2000/svg" width="700" height="700" viewBox="0 0 700 700" fill="none"><path d="M194.345 77.7623H155.476V116.642H194.345V77.7623Z" fill="#003970"></path><path d="M116.608 77.7623H77.7389V116.642H116.608V77.7623Z" fill="#003970"></path><path d="M38.8701 77.7623H0.00134277V116.642H38.8701V77.7623Z" fill="#003970"></path><path d="M116.608 0H77.7389V38.8798H116.608V0Z" fill="#003970"></path><path d="M38.8701 0H0.00134277V38.8798H38.8701V0Z" fill="#003970"></path><path d="M194.345 0H155.476V38.8798H194.345V0Z" fill="#003970"></path><path d="M38.8701 155.574H0.00134277V194.454H38.8701V155.574Z" fill="#003970"></path><path d="M116.608 155.574H77.7389V194.454H116.608V155.574Z" fill="#003970"></path><path d="M194.345 155.574H155.476V194.454H194.345V155.574Z" fill="#003970"></path><path d="M155.477 272.221H679.135L668.715 233.353H155.477V272.221Z" fill="#7B001D"></path><path d="M233.214 116.642H637.451L627.031 77.7622H233.214V116.642Z" fill="#7B001D"></path><path d="M616.598 38.8797C610.772 17.4072 588.716 0 567.21 0H233.214V38.8797H616.598Z" fill="#7B001D"></path><path d="M233.214 194.454H658.317L647.884 155.574H233.214V194.454Z" fill="#7B001D"></path><path d="M155.477 350H699.999L689.565 311.101H155.477V350Z" fill="#7B001D"></path><path d="M0.00134277 447.272H14.4726L47.8945 491.193V447.272H63.3773V518.601H50.0299L15.4896 473.257V518.601H0.00134277V447.272Z" fill="#003970"></path><path d="M99.9818 447.272H153.782V461.231H115.571V475.702H149.196V489.661H115.571V504.639H154.287V518.598H99.979V447.269L99.9818 447.272Z" fill="#003970"></path><path d="M188.164 447.272H221.281C229.428 447.272 235.848 449.517 239.927 453.591C243.184 456.856 244.818 460.828 244.818 465.716V465.918C244.818 473.97 240.536 478.454 235.445 481.308C243.699 484.463 248.793 489.258 248.793 498.836V499.039C248.793 512.082 238.198 518.603 222.101 518.603H188.166V447.275L188.164 447.272ZM217.918 476.108C224.85 476.108 229.228 473.868 229.228 468.569V468.366C229.228 463.679 225.56 461.028 218.937 461.028H203.455V476.108H217.92H217.918ZM222.098 504.842C229.025 504.842 233.206 502.4 233.206 497.101V496.898C233.206 492.109 229.639 489.148 221.585 489.148H203.452V504.842H222.098Z" fill="#003970"></path><path d="M278.248 447.272H310.853C319.924 447.272 326.95 449.822 331.637 454.509C335.615 458.481 337.753 464.085 337.753 470.814V471.017C337.753 482.528 331.536 489.765 322.471 493.131L339.889 518.603H321.552L306.264 495.777H293.936V518.603H278.243V447.275L278.248 447.272ZM309.836 481.922C317.476 481.922 321.859 477.843 321.859 471.834V471.631C321.859 464.901 317.172 461.442 309.532 461.442H293.939V481.922H309.836Z" fill="#003970"></path><path d="M390.748 446.765H405.219L435.787 518.601H419.381L412.859 502.605H382.702L376.181 518.601H360.185L390.748 446.765ZM407.256 488.745L397.782 465.614L388.308 488.745H407.259H407.256Z" fill="#003970"></path><path d="M454.343 508.208L463.617 497.101C470.037 502.402 476.761 505.76 484.914 505.76C491.334 505.76 495.205 503.211 495.205 499.036V498.833C495.205 494.861 492.757 492.819 480.835 489.762C466.471 486.094 457.197 482.122 457.197 467.961V467.752C457.197 454.816 467.589 446.252 482.162 446.252C492.554 446.252 501.417 449.517 508.651 455.323L500.498 467.144C494.185 462.76 487.968 460.11 481.959 460.11C475.95 460.11 472.787 462.862 472.787 466.327V466.53C472.787 471.217 475.84 472.747 488.168 475.902C502.639 479.672 510.792 484.872 510.792 497.301V497.504C510.792 511.671 499.988 519.618 484.599 519.618C473.801 519.618 462.896 515.848 454.34 508.208H454.343Z" fill="#003970"></path><path d="M540.401 447.272H556.094V478.454L585.031 447.272H603.982L574.944 477.539L605.312 518.601H586.463L564.348 488.233L556.094 496.796V518.598H540.401V447.269V447.272Z" fill="#003970"></path><path d="M654.959 446.765H669.43L699.999 518.601H683.592L677.07 502.605H646.913L640.392 518.601H624.396L654.959 446.765ZM671.467 488.745L661.993 465.614L652.519 488.745H671.47H671.467Z" fill="#003970"></path><path d="M104.831 557.48L76.2202 637.2L47.6011 557.48H0.00134277L56.7132 698.273H94.9515L151.663 557.48H104.831Z" fill="#7B001D"></path><path d="M226.169 554.794C183.95 554.794 150.877 586.68 150.877 627.394V627.781C150.877 668.28 183.783 700 225.788 700C267.793 700 301.075 668.108 301.075 627.013C301.075 585.918 268.174 554.794 226.169 554.794ZM225.788 593.83C243.938 593.83 257.625 608.26 257.625 627.391V627.778C257.625 646.695 244.1 660.958 226.169 660.958C208.238 660.958 194.518 646.216 194.518 627.008C194.518 607.799 207.961 593.827 225.785 593.827L225.788 593.83Z" fill="#7B001D"></path><path d="M306.714 595.554H347.024V697.311H389.712V595.554H430.031V557.48H306.714V595.554Z" fill="#7B001D"></path><path d="M490.235 644.324H554.74V609.513H490.235V594.592H561.459V557.48H447.934V697.311H562.421V660.191H490.235V644.324Z" fill="#7B001D"></path><path d="M647.769 608.235C628.081 603.767 626.655 601.322 626.655 597.443C626.655 593.794 630.762 591.524 637.374 591.524C648.937 591.524 661.749 596.056 673.441 604.279L675.653 605.842L697.329 575.23L695.327 573.629C679.858 561.211 661.215 555.172 638.333 555.172C605.583 555.172 583.584 573.547 583.584 601.283C583.584 631.607 608.56 639.82 636.379 646.169C655.379 650.569 656.927 653.401 656.927 656.762C656.927 662.417 649.002 663.261 644.285 663.261C629.43 663.261 615.334 658.036 602.398 647.729L600.322 646.073L576.191 674.884L578.154 676.641C594.692 691.453 617.697 699.611 642.941 699.611C677.602 699.611 699.996 681.362 699.996 652.729C699.996 624.096 674.883 614.123 647.766 608.23L647.769 608.235Z" fill="#7B001D"></path></svg>